<?xml version="1.0"?>
<?xml-stylesheet type="text/css" href="FocusGraph.css" ?>
<!DOCTYPE svg PUBLIC "-//W3C//DTD SVG 1.1//EN" "http://www.w3.org/Graphics/SVG/1.1/DTD/svg11.dtd">
<svg xmlns="http://www.w3.org/2000/svg" version="1.1" width="896.67" height="255">
<defs>
<marker id="arrowStart" markerWidth="3.75" markerHeight="3.75" markerUnits="px" refX="1.88" refY="1.88">
<circle class="connector" cx="1.88" cy="1.88" r="1.88" />
</marker>
<marker id="arrowEnd" markerWidth="7.5" markerHeight="7.5" markerUnits="px" refX="7.5" refY="3.75">
<polygon class="connector" points="0 0 7.5 3.75 0 7.5" />
</marker>
</defs>
<g>
<g transform="translate(3.75 3.75)">
<a href="StructureDefinition-MGFinding.html" target="_top">
<rect class="profile" x="0" y="0" width="102.6" height="26.25" rx="3.75" ry="3.75" />
</a>
<a href="StructureDefinition-MGFinding.html" target="_top">
<title />
<text x="5.62" y="18.75" text-anchor="left" class="profile">Mg Findings</text>
</a>
</g>
<line class="connector" marker-end="url(#arrowEnd)" x1="136.35" y1="16.88" x2="196.35" y2="16.88" />
<text x="140.1" y="13.12" text-anchor="right" class="lhsText">0..*</text>
<line class="connector" marker-start="url(#arrowStart)" x1="106.35" y1="16.88" x2="136.35" y2="16.88" />
<line class="connector" x1="136.35" y1="16.88" x2="136.35" y2="16.88" />
</g>
<g>
<g transform="translate(196.35 3.75)">
<a href="StructureDefinition-CystAbnormality.html" target="_top">
<rect class="focus" x="0" y="0" width="45.79" height="26.25" rx="3.75" ry="3.75" />
</a>
<a href="StructureDefinition-CystAbnormality.html" target="_top">
<title />
<text x="5.62" y="18.75" text-anchor="left" class="focus">Cyst</text>
</a>
</g>
<line class="connector" marker-end="url(#arrowEnd)" x1="272.14" y1="16.88" x2="332.14" y2="16.88" />
<text x="275.89" y="13.12" text-anchor="right" class="lhsText">1..1</text>
<line class="connector" marker-end="url(#arrowEnd)" x1="272.14" y1="50.62" x2="332.14" y2="50.62" />
<text x="275.89" y="46.88" text-anchor="right" class="lhsText">1..*</text>
<line class="connector" marker-start="url(#arrowStart)" x1="242.14" y1="16.88" x2="272.14" y2="16.88" />
<line class="connector" x1="272.14" y1="16.88" x2="272.14" y2="50.62" />
</g>
<g>
<g transform="translate(332.14 3.75)">
<a href="StructureDefinition-CystAbnormality-definitions.html#Observation.code" target="_top">
<rect class="element" x="0" y="0" width="52.22" height="26.25" rx="3.75" ry="3.75" />
</a>
<a href="StructureDefinition-CystAbnormality-definitions.html#Observation.code" target="_top">
<title />
<text x="5.62" y="18.75" text-anchor="left" class="element">Code</text>
</a>
</g>
<line class="connector" marker-end="url(#arrowEnd)" x1="414.37" y1="16.88" x2="534.37" y2="16.88" />
<text x="418.12" y="13.12" text-anchor="right" class="lhsText">pattern </text>
<line class="connector" marker-start="url(#arrowStart)" x1="384.37" y1="16.88" x2="414.37" y2="16.88" />
<line class="connector" x1="414.37" y1="16.88" x2="414.37" y2="16.88" />
</g>
<g>
<g transform="translate(534.37 3.75)">
<a href="CodeSystem-RadLexCDE.html" target="_top">
<rect class="value" x="0" y="0" width="185.03" height="26.25" rx="3.75" ry="3.75" />
</a>
<a href="CodeSystem-RadLexCDE.html" target="_top">
<title />
<text x="5.62" y="18.75" text-anchor="left" class="value">RadLexCDE#RDE1575</text>
</a>
</g>
</g>
<g>
<g transform="translate(332.14 37.5)">
<a href="StructureDefinition-CystAbnormality-definitions.html#Observation.component" target="_top">
<rect class="element" x="0" y="0" width="106.26" height="26.25" rx="3.75" ry="3.75" />
</a>
<a href="StructureDefinition-CystAbnormality-definitions.html#Observation.component" target="_top">
<title />
<text x="5.62" y="18.75" text-anchor="left" class="element">Components</text>
</a>
</g>
<line class="connector" marker-end="url(#arrowEnd)" x1="468.41" y1="50.62" x2="528.41" y2="50.62" />
<text x="472.16" y="46.88" text-anchor="right" class="lhsText">1..1</text>
<line class="connector" marker-end="url(#arrowEnd)" x1="468.41" y1="84.38" x2="528.41" y2="84.38" />
<text x="472.16" y="80.62" text-anchor="right" class="lhsText">0..1</text>
<line class="connector" marker-end="url(#arrowEnd)" x1="468.41" y1="118.12" x2="528.41" y2="118.12" />
<text x="472.16" y="114.38" text-anchor="right" class="lhsText">0..1</text>
<line class="connector" marker-start="url(#arrowStart)" x1="438.41" y1="50.62" x2="468.41" y2="50.62" />
<line class="connector" x1="468.41" y1="50.62" x2="468.41" y2="118.12" />
</g>
<g>
<g transform="translate(528.41 37.5)">
<a href="StructureDefinition-CystAbnormality-definitions.html#Observation.component:cystPresence" target="_top">
<rect class="element" x="0" y="0" width="119.99" height="26.25" rx="3.75" ry="3.75" />
</a>
<a href="StructureDefinition-CystAbnormality-definitions.html#Observation.component:cystPresence" target="_top">
<title />
<text x="5.62" y="18.75" text-anchor="left" class="element">Cyst Presence</text>
</a>
</g>
<line class="connector" marker-end="url(#arrowEnd)" x1="678.4" y1="50.62" x2="738.4" y2="50.62" />
<text x="682.15" y="46.88" text-anchor="right" class="lhsText">bind</text>
<line class="connector" marker-start="url(#arrowStart)" x1="648.4" y1="50.62" x2="678.4" y2="50.62" />
<line class="connector" x1="678.4" y1="50.62" x2="678.4" y2="50.62" />
</g>
<g>
<g transform="translate(738.4 37.5)">
<a href="ValueSet-rde1575-cyst.html" target="_top">
<rect class="valueSet" x="0" y="0" width="126.4" height="26.25" rx="3.75" ry="3.75" />
</a>
<a href="ValueSet-rde1575-cyst.html" target="_top">
<title />
<text x="5.62" y="18.75" text-anchor="left" class="valueSet">RDE1575_Cyst</text>
</a>
</g>
</g>
<g>
<g transform="translate(528.41 71.25)">
<a href="StructureDefinition-CystAbnormality-definitions.html#Observation.component:cystType" target="_top">
<rect class="element" x="0" y="0" width="87.01" height="26.25" rx="3.75" ry="3.75" />
</a>
<a href="StructureDefinition-CystAbnormality-definitions.html#Observation.component:cystType" target="_top">
<title />
<text x="5.62" y="18.75" text-anchor="left" class="element">Cyst Type</text>
</a>
</g>
<line class="connector" marker-end="url(#arrowEnd)" x1="645.42" y1="84.38" x2="705.42" y2="84.38" />
<text x="649.17" y="80.62" text-anchor="right" class="lhsText">bind</text>
<line class="connector" marker-start="url(#arrowStart)" x1="615.42" y1="84.38" x2="645.42" y2="84.38" />
<line class="connector" x1="645.42" y1="84.38" x2="645.42" y2="84.38" />
</g>
<g>
<g transform="translate(705.42 71.25)">
<a href="ValueSet-rde1577-type.html" target="_top">
<rect class="valueSet" x="0" y="0" width="130.08" height="26.25" rx="3.75" ry="3.75" />
</a>
<a href="ValueSet-rde1577-type.html" target="_top">
<title />
<text x="5.62" y="18.75" text-anchor="left" class="valueSet">RDE1577_Type</text>
</a>
</g>
</g>
<g>
<g transform="translate(528.41 105)">
<a href="StructureDefinition-CystAbnormality-definitions.html#Observation.component:shape" target="_top">
<rect class="element" x="0" y="0" width="60.48" height="26.25" rx="3.75" ry="3.75" />
</a>
<a href="StructureDefinition-CystAbnormality-definitions.html#Observation.component:shape" target="_top">
<title />
<text x="5.62" y="18.75" text-anchor="left" class="element">Shape</text>
</a>
</g>
<line class="connector" marker-end="url(#arrowEnd)" x1="618.89" y1="118.12" x2="678.89" y2="118.12" />
<text x="622.64" y="114.38" text-anchor="right" class="lhsText">bind</text>
<line class="connector" marker-start="url(#arrowStart)" x1="588.89" y1="118.12" x2="618.89" y2="118.12" />
<line class="connector" x1="618.89" y1="118.12" x2="618.89" y2="118.12" />
</g>
<g>
<g transform="translate(678.89 105)">
<a href="ValueSet-rde1576-shape.html" target="_top">
<rect class="valueSet" x="0" y="0" width="141.09" height="26.25" rx="3.75" ry="3.75" />
</a>
<a href="ValueSet-rde1576-shape.html" target="_top">
<title />
<text x="5.62" y="18.75" text-anchor="left" class="valueSet">RDE1576_Shape</text>
</a>
</g>
</g>
<g>
<g transform="translate(3.75 213.75)">
<a target="_top">
<rect class="focus" x="0" y="0" width="57.72" height="26.25" rx="3.75" ry="3.75" />
</a>
<a target="_top">
<title />
<text x="5.62" y="18.75" text-anchor="left" class="focus">Focus</text>
</a>
</g>
<g transform="translate(68.97 213.75)">
<a target="_top">
<rect class="profile" x="0" y="0" width="143.81" height="26.25" rx="3.75" ry="3.75" />
</a>
<a target="_top">
<title />
<text x="5.62" y="18.75" text-anchor="left" class="profile">Profiled Resource</text>
</a>
</g>
<g transform="translate(220.28 213.75)">
<a target="_top">
<rect class="element" x="0" y="0" width="148.39" height="26.25" rx="3.75" ry="3.75" />
</a>
<a target="_top">
<title />
<text x="5.62" y="18.75" text-anchor="left" class="element">Resource Element</text>
</a>
</g>
<g transform="translate(376.16 213.75)">
<a target="_top">
<rect class="valueSet" x="0" y="0" width="79.72" height="26.25" rx="3.75" ry="3.75" />
</a>
<a target="_top">
<title />
<text x="5.62" y="18.75" text-anchor="left" class="valueSet">ValueSet</text>
</a>
</g>
<g transform="translate(463.38 213.75)">
<a target="_top">
<rect class="value" x="0" y="0" width="54.98" height="26.25" rx="3.75" ry="3.75" />
</a>
<a target="_top">
<title />
<text x="5.62" y="18.75" text-anchor="left" class="value">Value</text>
</a>
</g>
</g>
</svg>
